# xmcd
#
# Track frame offsets:
#  150
#  5623
#  17237
#  26728
#  37269
#  48751
#  58650
#  71131
#  81024
#  94450
#  107401
#  117348
#  128630
#  139012
#  149174
#  161475
#
# Disc length: 2353 seconds
#
# Revision: 0
# Processed by: cddbd v1.5.2PL0 Copyright (c) Steve Scherf et al.
# Submitted via: AltoMP3_Maker 3.0
#
DISCID=e4092f10
DTITLE=Various Artist - Country Classics Vol 4
DYEAR=1900
DGENRE=
TTITLE0=Darkness On The Face Of Earth
TTITLE1=You Can't Put The City In A Country Girl
TTITLE2=How High The Moon
TTITLE3=The Heart You Could Of Had
TTITLE4=Bandera Waltz
TTITLE5=Turn The Cards Slowly
TTITLE6=One Has My Name The Other Has My Heart
TTITLE7=Blue Danube Waltz
TTITLE8=Whisper Waltz
TTITLE9=Drinkin' Wine Spoe-Dee-O-Dee
TTITLE10=Oklahoma Sweetheart Sally Anne
TTITLE11=When You Say Yes
TTITLE12=The Whoops And The Holler
TTITLE13=Get Rhythm
TTITLE14=Drinking Tequila
TTITLE15=Build My Gallows High
EXTD=
EXTT0=
EXTT1=
EXTT2=
EXTT3=
EXTT4=
EXTT5=
EXTT6=
EXTT7=
EXTT8=
EXTT9=
EXTT10=
EXTT11=
EXTT12=
EXTT13=
EXTT14=
EXTT15=
PLAYORDER=
